<svg version="1.1" id="Layer_1" xmlns="http://www.w3.org/2000/svg" xmlns:xlink="http://www.w3.org/1999/xlink" x="0px" y="0px"
	 width="100%" viewBox="0 0 500 150" enable-background="new 0 0 500 150" xml:space="preserve">
<path fill="#FFFFFF" opacity="1.000000" stroke="none" 
	d="
M363.000000,151.000000 
	C242.000092,151.000000 121.500183,151.000000 1.000210,151.000000 
	C1.000140,101.000130 1.000140,51.000263 1.000070,1.000297 
	C167.666397,1.000198 334.332794,1.000198 500.999390,1.000099 
	C500.999603,50.999699 500.999603,100.999397 500.999817,150.999542 
	C455.166656,151.000000 409.333344,151.000000 363.000000,151.000000 
M270.361847,115.250763 
	C270.361847,115.250763 270.581482,115.444641 270.581482,115.444641 
	C270.581482,115.444641 270.868195,115.384697 271.499969,115.898781 
	C277.260559,119.173965 283.012421,118.930458 288.427856,115.323257 
	C296.138550,110.187210 297.867950,94.991508 292.076294,86.844841 
	C287.503784,80.413010 277.387482,77.908264 268.332611,85.866814 
	C267.918335,84.520805 267.532471,83.267159 267.114502,81.909134 
	C265.051117,82.028564 263.299988,82.129913 262.159271,82.195938 
	C262.159271,94.804474 262.159271,106.900047 262.015350,119.914001 
	C262.015350,123.521423 262.015350,127.128845 262.015350,130.711243 
	C264.394714,130.711243 266.280121,130.711243 268.584229,130.711243 
	C268.584229,127.595993 268.392853,124.774185 268.641754,121.991753 
	C268.860413,119.546959 269.572235,117.146271 270.101288,114.950294 
	C270.101288,114.950294 270.328094,114.957710 270.361847,115.250763 
M447.318390,112.430656 
	C447.429535,111.979317 447.540680,111.527977 447.989685,110.413834 
	C451.595612,101.101631 455.201538,91.789436 458.814636,82.458725 
	C453.417114,80.909004 451.103394,82.578041 449.843903,87.523369 
	C448.103394,94.357338 445.391571,100.943909 442.789368,108.529510 
	C439.275940,98.861145 436.223602,90.461525 433.285034,82.375092 
	C430.654053,82.375092 428.460327,82.375092 425.670380,82.375092 
	C430.279541,93.291969 434.649872,103.643181 439.056915,114.757408 
	C438.319366,121.508675 432.968414,124.515594 427.954742,127.874603 
	C428.575012,129.621841 429.104095,131.112244 429.705811,132.807281 
	C439.431793,129.783249 443.304169,122.218750 446.792572,113.395676 
	C446.838135,113.168488 446.883667,112.941299 447.318390,112.430656 
M19.716660,126.006317 
	C25.314619,126.237274 30.254988,126.559654 34.011185,120.298004 
	C42.110779,106.795860 51.247601,93.915215 59.996502,80.804626 
	C60.664383,79.803780 61.620178,78.995071 62.355835,78.191353 
	C69.446770,83.895561 73.576431,90.403137 72.102089,99.691368 
	C71.457253,103.753746 71.993668,108.003616 71.993668,112.168350 
	C71.993668,116.752373 71.993668,121.336388 71.993668,125.758636 
	C76.720558,125.758636 80.665535,125.758636 85.006332,125.758636 
	C85.006332,116.560417 85.673798,107.540169 84.822166,98.665718 
	C83.937035,89.442215 88.129944,83.476860 94.783623,78.085022 
	C95.572792,79.043961 96.382820,79.876114 97.019432,80.824646 
	C106.355690,94.735527 115.627525,108.690025 125.048836,122.542900 
	C126.034676,123.992447 127.791512,125.697945 129.328766,125.845490 
	C133.893082,126.283577 138.526443,126.002403 143.933746,126.002403 
	C130.594955,106.252304 117.685478,87.137848 104.694611,67.902901 
	C116.716034,53.755432 128.620743,39.745300 141.151093,24.998894 
	C135.234863,24.998894 130.301743,24.893835 125.379341,25.077009 
	C124.231422,25.119724 122.775330,25.860434 122.044685,26.756109 
	C114.249916,36.311619 106.600052,45.985119 98.852592,55.579544 
	C94.502625,60.966541 90.044716,66.266380 84.866791,72.536232 
	C84.866791,55.996220 84.866791,40.627781 84.866791,25.340359 
	C80.318298,25.340359 76.258308,25.340359 71.891296,25.340359 
	C71.891296,40.919483 71.891296,56.154472 71.891296,71.474174 
	C71.292603,71.310646 70.895103,71.327591 70.747070,71.143715 
	C60.773273,58.754490 50.887009,46.293934 40.818413,33.982471 
	C38.180695,30.757179 35.457664,26.521967 31.923349,25.377934 
	C27.316061,23.886583 21.861406,25.013031 15.818762,25.013031 
	C28.326174,39.732716 40.219933,53.730206 52.257740,67.897224 
	C39.273643,87.134613 26.331739,106.309494 13.037583,126.006279 
	C15.521827,126.006279 17.171711,126.006279 19.716660,126.006317 
M206.857407,116.123299 
	C209.348648,116.517693 211.839890,116.912086 215.556519,117.500473 
	C208.718277,107.182434 202.628448,97.993668 196.541763,88.809624 
	C202.306702,81.863457 207.819412,75.221191 213.439774,68.449219 
	C207.553421,66.804207 203.840454,68.625191 201.257889,73.370041 
	C200.243225,75.234230 198.642227,76.785759 197.268280,78.446609 
	C194.101044,82.275192 190.909348,86.083519 186.824982,90.982727 
	C186.824982,82.362312 186.824982,75.270721 186.824982,68.301041 
	C184.516388,68.301041 182.610596,68.301041 180.743103,68.301041 
	C180.743103,84.685081 180.743103,100.735809 180.743103,116.660019 
	C183.056259,116.660019 184.946167,116.660019 186.479446,116.660019 
	C188.854553,108.996254 183.325836,99.986824 191.777222,93.685349 
	C196.784119,101.221771 201.550018,108.395439 206.857407,116.123299 
M249.055099,116.805031 
	C248.937973,107.929420 249.400467,98.986931 248.388397,90.214569 
	C248.035614,87.156609 244.578995,83.155281 241.596329,81.980583 
	C235.873886,79.726852 229.642502,80.309486 224.037628,84.064308 
	C224.606934,85.684097 225.087952,87.052681 225.635880,88.611618 
	C230.262543,86.223206 235.090302,84.093712 239.670059,87.436348 
	C241.442184,88.729774 241.828461,91.921951 242.590256,93.664062 
	C236.564499,95.435806 231.473251,96.365334 226.900360,98.438332 
	C222.407318,100.475121 220.632507,106.185608 222.024094,110.772865 
	C223.593292,115.945518 226.624710,118.360680 232.460770,117.905075 
	C235.905914,117.636131 239.254852,116.134575 242.040909,115.356598 
	C244.261032,115.944107 246.255325,116.471855 249.055099,116.805031 
M325.017029,114.386040 
	C327.119812,116.699120 329.380341,118.373909 331.905182,116.758926 
	C331.905182,108.295952 332.058472,100.338074 331.852020,92.389534 
	C331.711273,86.972336 328.476227,82.345901 323.981720,81.479256 
	C318.241486,80.372429 312.459015,80.409782 307.021790,84.009987 
	C307.601990,85.605553 308.131195,87.060860 308.703949,88.635948 
	C313.328247,86.142906 318.020294,84.222359 322.475403,87.319496 
	C324.310883,88.595512 324.815277,91.786285 325.740814,93.720909 
	C319.918091,95.357101 314.990265,96.217056 310.520203,98.140709 
	C305.738800,100.198334 303.625214,105.556465 304.810638,110.100616 
	C307.043335,118.659492 316.167114,120.882545 325.017029,114.386040 
M359.931580,86.284866 
	C362.809326,86.616508 365.687073,86.948143 368.838745,87.311356 
	C369.252197,85.901817 369.699036,84.378448 370.124023,82.929604 
	C362.093842,78.943253 351.185394,81.237900 346.561096,87.160324 
	C341.367950,93.811256 341.077576,105.072449 346.371796,112.232735 
	C350.816406,118.243980 360.696014,119.871704 370.019989,115.881874 
	C369.715515,114.447533 369.393311,112.929581 369.070007,111.406425 
	C357.203918,114.066414 351.785828,111.694168 349.789948,103.295593 
	C347.807648,94.954231 351.482269,88.422882 359.931580,86.284866 
M401.586731,81.954803 
	C400.459137,82.717926 399.195831,83.350677 398.273529,84.310959 
	C397.924530,84.674309 398.362396,85.793442 398.444763,86.598831 
	C400.180023,86.831589 401.589355,87.020630 403.316162,87.252251 
	C403.316162,89.348526 403.257874,91.150620 403.326813,92.947845 
	C403.561462,99.062439 403.548401,105.206543 404.196686,111.278870 
	C404.707397,116.062515 414.106689,119.659576 418.179993,116.797440 
	C418.046875,115.639351 417.904205,114.398041 417.726532,112.852455 
	C412.749084,114.206726 410.407349,111.696510 410.207489,107.457825 
	C409.889557,100.715118 410.122589,93.946434 410.122589,86.719208 
	C413.315582,86.719208 416.054016,86.719208 419.125793,86.719208 
	C418.939026,84.830345 418.802734,83.452042 418.640045,81.806580 
	C415.623688,81.806580 413.015411,81.806580 409.938660,81.806580 
	C409.938660,78.438446 409.938660,75.373817 409.938660,72.334351 
	C405.072937,72.175789 402.459412,73.658821 403.227051,78.662445 
	C403.380615,79.663353 402.742096,80.785782 401.586731,81.954803 
M387.713287,93.525566 
	C387.713287,89.763969 387.713287,86.002365 387.713287,82.258026 
	C385.120178,82.258026 383.208282,82.258026 381.266235,82.258026 
	C381.266235,93.934052 381.266235,105.320305 381.266235,116.678146 
	C383.469696,116.678146 385.371429,116.678146 387.712891,116.678146 
	C387.712891,109.088760 387.712891,101.802750 387.713287,93.525566 
M387.334137,69.283524 
	C383.006195,67.245148 380.332123,67.874649 380.243164,71.151184 
	C380.204132,72.588806 380.912750,74.507828 381.967255,75.371346 
	C382.845551,76.090614 385.557098,76.154358 385.994965,75.512009 
	C387.035004,73.986374 387.208282,71.869850 387.334137,69.283524 
z"/>
<path fill="#392CE5" opacity="1.000000" stroke="none" 
	d="
M19.269127,126.006302 
	C17.171711,126.006279 15.521827,126.006279 13.037583,126.006279 
	C26.331739,106.309494 39.273643,87.134613 52.257740,67.897224 
	C40.219933,53.730206 28.326174,39.732716 15.818762,25.013031 
	C21.861406,25.013031 27.316061,23.886583 31.923349,25.377934 
	C35.457664,26.521967 38.180695,30.757179 40.818413,33.982471 
	C50.887009,46.293934 60.773273,58.754490 70.747070,71.143715 
	C70.895103,71.327591 71.292603,71.310646 71.891296,71.474174 
	C71.891296,56.154472 71.891296,40.919483 71.891296,25.340359 
	C76.258308,25.340359 80.318298,25.340359 84.866791,25.340359 
	C84.866791,40.627781 84.866791,55.996220 84.866791,72.536232 
	C90.044716,66.266380 94.502625,60.966541 98.852592,55.579544 
	C106.600052,45.985119 114.249916,36.311619 122.044685,26.756109 
	C122.775330,25.860434 124.231422,25.119724 125.379341,25.077009 
	C130.301743,24.893835 135.234863,24.998894 141.151093,24.998894 
	C128.620743,39.745300 116.716034,53.755432 104.694611,67.902901 
	C117.685478,87.137848 130.594955,106.252304 143.933746,126.002403 
	C138.526443,126.002403 133.893082,126.283577 129.328766,125.845490 
	C127.791512,125.697945 126.034676,123.992447 125.048836,122.542900 
	C115.627525,108.690025 106.355690,94.735527 97.019432,80.824646 
	C96.382820,79.876114 95.572792,79.043961 94.783623,78.085022 
	C88.129944,83.476860 83.937035,89.442215 84.822166,98.665718 
	C85.673798,107.540169 85.006332,116.560417 85.006332,125.758636 
	C80.665535,125.758636 76.720558,125.758636 71.993668,125.758636 
	C71.993668,121.336388 71.993668,116.752373 71.993668,112.168350 
	C71.993668,108.003616 71.457253,103.753746 72.102089,99.691368 
	C73.576431,90.403137 69.446770,83.895561 62.355835,78.191353 
	C61.620178,78.995071 60.664383,79.803780 59.996502,80.804626 
	C51.247601,93.915215 42.110779,106.795860 34.011185,120.298004 
	C30.254988,126.559654 25.314619,126.237274 19.269127,126.006302 
z"/>
<path fill="#4337E4" opacity="1.000000" stroke="none" 
	d="
M206.586670,115.846207 
	C201.550018,108.395439 196.784119,101.221771 191.777222,93.685349 
	C183.325836,99.986824 188.854553,108.996254 186.479446,116.660019 
	C184.946167,116.660019 183.056259,116.660019 180.743103,116.660019 
	C180.743103,100.735809 180.743103,84.685081 180.743103,68.301041 
	C182.610596,68.301041 184.516388,68.301041 186.824982,68.301041 
	C186.824982,75.270721 186.824982,82.362312 186.824982,90.982727 
	C190.909348,86.083519 194.101044,82.275192 197.268280,78.446609 
	C198.642227,76.785759 200.243225,75.234230 201.257889,73.370041 
	C203.840454,68.625191 207.553421,66.804207 213.439774,68.449219 
	C207.819412,75.221191 202.306702,81.863457 196.541763,88.809624 
	C202.628448,97.993668 208.718277,107.182434 215.556519,117.500473 
	C211.839890,116.912086 209.348648,116.517693 206.586670,115.846207 
z"/>
<path fill="#4034E4" opacity="1.000000" stroke="none" 
	d="
M262.159271,118.995613 
	C262.159271,106.900047 262.159271,94.804474 262.159271,82.195938 
	C263.299988,82.129913 265.051117,82.028564 267.114502,81.909134 
	C267.532471,83.267159 267.918335,84.520805 268.332611,85.866814 
	C277.387482,77.908264 287.503784,80.413010 292.076294,86.844841 
	C297.867950,94.991508 296.138550,110.187210 288.427856,115.323257 
	C283.012421,118.930458 277.260559,119.173965 271.108643,115.555450 
	C270.717346,115.212112 270.328094,114.957710 270.328094,114.957710 
	C270.328094,114.957710 270.101288,114.950294 269.987518,114.530884 
	C268.876831,115.428848 267.879913,116.746216 266.177673,118.995613 
	C265.632141,118.995613 263.895691,118.995613 262.159271,118.995613 
M268.546173,104.598106 
	C270.239929,110.483170 273.938110,113.495125 279.045074,113.148895 
	C283.734192,112.830986 287.620728,109.195236 288.348419,103.633347 
	C288.767365,100.431114 288.668549,96.993927 287.962982,93.851036 
	C286.908295,89.153122 282.354553,85.864098 278.234680,86.028160 
	C273.862976,86.202248 269.557587,89.972458 268.766663,94.847954 
	C268.293213,97.766464 268.522705,100.799011 268.546173,104.598106 
z"/>
<path fill="#4337E4" opacity="1.000000" stroke="none" 
	d="
M248.652359,116.902313 
	C246.255325,116.471855 244.261032,115.944107 242.040909,115.356598 
	C239.254852,116.134575 235.905914,117.636131 232.460770,117.905075 
	C226.624710,118.360680 223.593292,115.945518 222.024094,110.772865 
	C220.632507,106.185608 222.407318,100.475121 226.900360,98.438332 
	C231.473251,96.365334 236.564499,95.435806 242.590256,93.664062 
	C241.828461,91.921951 241.442184,88.729774 239.670059,87.436348 
	C235.090302,84.093712 230.262543,86.223206 225.635880,88.611618 
	C225.087952,87.052681 224.606934,85.684097 224.037628,84.064308 
	C229.642502,80.309486 235.873886,79.726852 241.596329,81.980583 
	C244.578995,83.155281 248.035614,87.156609 248.388397,90.214569 
	C249.400467,98.986931 248.937973,107.929420 248.652359,116.902313 
M239.608231,99.666573 
	C237.968185,99.891991 236.293488,99.976944 234.695099,100.371201 
	C231.031006,101.274956 227.800888,103.281776 228.276413,107.345055 
	C228.515823,109.390656 230.806259,112.197792 232.762222,112.832153 
	C236.817596,114.147400 240.392471,112.102829 242.094467,108.177475 
	C242.970718,106.156555 242.873749,103.635864 242.830429,101.348320 
	C242.819504,100.771484 241.325378,100.222725 239.608231,99.666573 
z"/>
<path fill="#4438E4" opacity="1.000000" stroke="none" 
	d="
M324.724060,114.633636 
	C316.167114,120.882545 307.043335,118.659492 304.810638,110.100616 
	C303.625214,105.556465 305.738800,100.198334 310.520203,98.140709 
	C314.990265,96.217056 319.918091,95.357101 325.740814,93.720909 
	C324.815277,91.786285 324.310883,88.595512 322.475403,87.319496 
	C318.020294,84.222359 313.328247,86.142906 308.703949,88.635948 
	C308.131195,87.060860 307.601990,85.605553 307.021790,84.009987 
	C312.459015,80.409782 318.241486,80.372429 323.981720,81.479256 
	C328.476227,82.345901 331.711273,86.972336 331.852020,92.389534 
	C332.058472,100.338074 331.905182,108.295952 331.905182,116.758926 
	C329.380341,118.373909 327.119812,116.699120 324.724060,114.633636 
M325.313782,99.864189 
	C322.367889,100.147675 319.119476,99.761971 316.567047,100.915840 
	C314.323700,101.929962 312.101044,104.415565 311.328461,106.736916 
	C310.844757,108.190277 312.730469,111.850197 314.138550,112.206573 
	C316.710602,112.857567 320.120056,112.538101 322.453430,111.277763 
	C326.550842,109.064606 326.169861,104.633118 325.313782,99.864189 
z"/>
<path fill="#4236E4" opacity="1.000000" stroke="none" 
	d="
M439.020203,113.994385 
	C434.649872,103.643181 430.279541,93.291969 425.670380,82.375092 
	C428.460327,82.375092 430.654053,82.375092 433.285034,82.375092 
	C436.223602,90.461525 439.275940,98.861145 442.789368,108.529510 
	C445.391571,100.943909 448.103394,94.357338 449.843903,87.523369 
	C451.103394,82.578041 453.417114,80.909004 458.814636,82.458725 
	C455.201538,91.789436 451.595612,101.101631 447.649780,110.902222 
	C447.182953,111.831772 447.056061,112.272942 446.929199,112.714111 
	C446.883667,112.941299 446.838135,113.168488 446.202698,113.693573 
	C443.415283,113.992447 441.217743,113.993416 439.020203,113.994385 
z"/>
<path fill="#4539E3" opacity="1.000000" stroke="none" 
	d="
M359.562897,86.432579 
	C351.482269,88.422882 347.807648,94.954231 349.789948,103.295593 
	C351.785828,111.694168 357.203918,114.066414 369.070007,111.406425 
	C369.393311,112.929581 369.715515,114.447533 370.019989,115.881874 
	C360.696014,119.871704 350.816406,118.243980 346.371796,112.232735 
	C341.077576,105.072449 341.367950,93.811256 346.561096,87.160324 
	C351.185394,81.237900 362.093842,78.943253 370.124023,82.929604 
	C369.699036,84.378448 369.252197,85.901817 368.838745,87.311356 
	C365.687073,86.948143 362.809326,86.616508 359.562897,86.432579 
z"/>
<path fill="#4135E4" opacity="1.000000" stroke="none" 
	d="
M402.027771,81.903488 
	C402.742096,80.785782 403.380615,79.663353 403.227051,78.662445 
	C402.459412,73.658821 405.072937,72.175789 409.938660,72.334351 
	C409.938660,75.373817 409.938660,78.438446 409.938660,81.806580 
	C413.015411,81.806580 415.623688,81.806580 418.640045,81.806580 
	C418.802734,83.452042 418.939026,84.830345 419.125793,86.719208 
	C416.054016,86.719208 413.315582,86.719208 410.122589,86.719208 
	C410.122589,93.946434 409.889557,100.715118 410.207489,107.457825 
	C410.407349,111.696510 412.749084,114.206726 417.726532,112.852455 
	C417.904205,114.398041 418.046875,115.639351 418.179993,116.797440 
	C414.106689,119.659576 404.707397,116.062515 404.196686,111.278870 
	C403.548401,105.206543 403.561462,99.062439 403.326813,92.947845 
	C403.257874,91.150620 403.316162,89.348526 403.316162,87.252251 
	C401.589355,87.020630 400.180023,86.831589 398.444763,86.598831 
	C398.362396,85.793442 397.924530,84.674309 398.273529,84.310959 
	C399.195831,83.350677 400.459137,82.717926 402.027771,81.903488 
z"/>
<path fill="#4337E4" opacity="1.000000" stroke="none" 
	d="
M387.713074,94.021149 
	C387.712891,101.802750 387.712891,109.088760 387.712891,116.678146 
	C385.371429,116.678146 383.469696,116.678146 381.266235,116.678146 
	C381.266235,105.320305 381.266235,93.934052 381.266235,82.258026 
	C383.208282,82.258026 385.120178,82.258026 387.713287,82.258026 
	C387.713287,86.002365 387.713287,89.763969 387.713074,94.021149 
z"/>
<path fill="#4539E4" opacity="1.000000" stroke="none" 
	d="
M439.038574,114.375900 
	C441.217743,113.993416 443.415283,113.992447 446.014038,113.985474 
	C443.304169,122.218750 439.431793,129.783249 429.705811,132.807281 
	C429.104095,131.112244 428.575012,129.621841 427.954742,127.874603 
	C432.968414,124.515594 438.319366,121.508675 439.038574,114.375900 
z"/>
<path fill="#4438E4" opacity="1.000000" stroke="none" 
	d="
M262.087311,119.454803 
	C263.895691,118.995613 265.632141,118.995613 266.177673,118.995613 
	C267.879913,116.746216 268.876831,115.428848 269.969971,114.418793 
	C269.572235,117.146271 268.860413,119.546959 268.641754,121.991753 
	C268.392853,124.774185 268.584229,127.595993 268.584229,130.711243 
	C266.280121,130.711243 264.394714,130.711243 262.015350,130.711243 
	C262.015350,127.128845 262.015350,123.521423 262.087311,119.454803 
z"/>
<path fill="#4F46E2" opacity="1.000000" stroke="none" 
	d="
M387.532959,69.637817 
	C387.208282,71.869850 387.035004,73.986374 385.994965,75.512009 
	C385.557098,76.154358 382.845551,76.090614 381.967255,75.371346 
	C380.912750,74.507828 380.204132,72.588806 380.243164,71.151184 
	C380.332123,67.874649 383.006195,67.245148 387.532959,69.637817 
z"/>
<path fill="#4539E4" opacity="1.000000" stroke="none" 
	d="
M447.123779,112.572380 
	C447.056061,112.272942 447.182953,111.831772 447.480835,111.233612 
	C447.540680,111.527977 447.429535,111.979317 447.123779,112.572380 
z"/>
<path fill="#4438E4" opacity="1.000000" stroke="none" 
	d="
M270.344971,115.104233 
	C270.328094,114.957710 270.717346,115.212112 270.792786,115.298401 
	C270.868195,115.384697 270.581482,115.444641 270.581482,115.444641 
	C270.581482,115.444641 270.361847,115.250763 270.344971,115.104233 
z"/>
<path fill="#F9F9FC" opacity="1.000000" stroke="none" 
	d="
M268.491211,104.189209 
	C268.522705,100.799011 268.293213,97.766464 268.766663,94.847954 
	C269.557587,89.972458 273.862976,86.202248 278.234680,86.028160 
	C282.354553,85.864098 286.908295,89.153122 287.962982,93.851036 
	C288.668549,96.993927 288.767365,100.431114 288.348419,103.633347 
	C287.620728,109.195236 283.734192,112.830986 279.045074,113.148895 
	C273.938110,113.495125 270.239929,110.483170 268.491211,104.189209 
z"/>
<path fill="#F9F9FC" opacity="1.000000" stroke="none" 
	d="
M240.060547,99.663818 
	C241.325378,100.222725 242.819504,100.771484 242.830429,101.348320 
	C242.873749,103.635864 242.970718,106.156555 242.094467,108.177475 
	C240.392471,112.102829 236.817596,114.147400 232.762222,112.832153 
	C230.806259,112.197792 228.515823,109.390656 228.276413,107.345055 
	C227.800888,103.281776 231.031006,101.274956 234.695099,100.371201 
	C236.293488,99.976944 237.968185,99.891991 240.060547,99.663818 
z"/>
<path fill="#F9F9FC" opacity="1.000000" stroke="none" 
	d="
M325.591492,100.222519 
	C326.169861,104.633118 326.550842,109.064606 322.453430,111.277763 
	C320.120056,112.538101 316.710602,112.857567 314.138550,112.206573 
	C312.730469,111.850197 310.844757,108.190277 311.328461,106.736916 
	C312.101044,104.415565 314.323700,101.929962 316.567047,100.915840 
	C319.119476,99.761971 322.367889,100.147675 325.591492,100.222519 
z"/>
</svg>