<svg width="500" height="150" viewBox="0 0 500 150" fill="none" xmlns="http://www.w3.org/2000/svg">
  <!-- Kubernetes Logo -->
  <g transform="translate(20, 20) scale(3)">
    <path d="M28.2 2.9L21.2 10.8L11 12.6L6.9 3.2L0.5 2.5L0 13.2L6.9 16.3L8.6 25.7L0 30L0.5 40.7L6.9 40L11 30.6L21.2 32.4L28.2 40.3L35.2 32.4L45.4 30.6L50.5 40L57 40.7L57.5 30L49.8 25.7L51.4 16.3L57.5 13.2L57 2.5L50.5 3.2L45.4 12.6L35.2 10.8L28.2 2.9Z" fill="#326CE5"/>
    <path d="M35.2 32.4L28.2 40.3L21.2 32.4L28.2 24.5L35.2 32.4ZM11 12.6L6.9 3.2L0.5 2.5L0 13.2L6.9 16.3L11 12.6ZM6.9 40L0.5 40.7L0 30L6.9 25.7L11 30.6L6.9 40ZM21.2 32.4L11 30.6L6.9 40L11 30.6L21.2 32.4ZM28.2 2.9L35.2 10.8L45.4 12.6L50.5 3.2L57 2.5L57.5 13.2L51.4 16.3L49.8 25.7L57.5 13.2L57 2.5L50.5 3.2L45.4 12.6L35.2 10.8L28.2 2.9ZM35.2 10.8L45.4 12.6L50.5 3.2L57 2.5L57.5 13.2L51.4 16.3L49.8 25.7L57.5 30L57 40.7L50.5 40L45.4 30.6L35.2 32.4L28.2 40.3L21.2 32.4L28.2 24.5L35.2 32.4Z" fill="#fff"/>
  </g>
  <!-- Kapacity Text -->
  <text x="220" y="100" font-family="Arial, sans-serif" font-size="60" fill="#ffffff">Kapacity</text>
</svg>
